<svg width="44" height="44" fill="none" xmlns="http://www.w3.org/2000/svg"><path d="M26 22a4 4 0 11-8 0 4 4 0 018 0z" fill="#131313"/><path d="M31.509 14.806a3.778 3.778 0 00-.913-1.402 3.776 3.776 0 00-1.402-.913c-.43-.167-1.075-.366-2.265-.42C25.643 12.013 25.257 12 22 12c-3.257 0-3.643.012-4.929.071-1.19.054-1.835.253-2.265.42a3.778 3.778 0 00-1.402.912 3.782 3.782 0 00-.913 1.403c-.167.43-.366 1.076-.42 2.265-.058 1.286-.071 1.672-.071 4.93 0 3.256.013 3.642.071 4.928.054 1.19.253 1.835.42 2.265a3.78 3.78 0 00.912 1.402c.394.406.873.718 1.403.913.43.167 1.076.366 2.265.42 1.286.059 1.672.071 4.929.071 3.257 0 3.643-.012 4.929-.071 1.19-.054 1.835-.253 2.265-.42a4.039 4.039 0 002.315-2.315c.167-.43.366-1.075.42-2.265.059-1.286.071-1.672.071-4.929 0-3.257-.012-3.643-.071-4.929-.054-1.19-.253-1.835-.42-2.265zM22 28.263a6.264 6.264 0 110-12.527 6.264 6.264 0 010 12.527zm6.511-11.31a1.464 1.464 0 110-2.928 1.464 1.464 0 010 2.927z" fill="#131313"/><path d="M22 0C9.852 0 0 9.852 0 22s9.852 22 22 22 22-9.852 22-22S34.148 0 22 0zm12.557 27.208c-.062 1.345-.275 2.263-.588 3.067a6.46 6.46 0 01-3.694 3.694c-.803.313-1.722.526-3.066.588-1.348.061-1.778.076-5.209.076-3.43 0-3.86-.015-5.208-.076-1.345-.062-2.263-.275-3.067-.588a6.188 6.188 0 01-2.237-1.457 6.189 6.189 0 01-1.457-2.237c-.312-.803-.526-1.722-.587-3.066-.062-1.348-.077-1.778-.077-5.209 0-3.43.015-3.861.076-5.208.061-1.345.275-2.263.587-3.067a6.186 6.186 0 011.458-2.237 6.186 6.186 0 012.237-1.457c.804-.313 1.722-.526 3.067-.588 1.347-.061 1.777-.076 5.208-.076 3.43 0 3.861.015 5.208.077 1.345.06 2.263.274 3.067.586a6.191 6.191 0 012.238 1.458 6.19 6.19 0 011.456 2.237c.313.804.526 1.722.588 3.067.061 1.347.076 1.777.076 5.208 0 3.43-.015 3.861-.076 5.208z" fill="#131313"/></svg>