<svg width="17" height="17" fill="none" xmlns="http://www.w3.org/2000/svg"><g clip-path="url(#clip0_34_1485)" fill="#131313"><path d="M5.527 5.8a4.035 4.035 0 00-1.185 2.836c0 1.1.444 2.117 1.185 2.836a4.035 4.035 0 002.836 1.186c1.1 0 2.116-.466 2.836-1.186a4.035 4.035 0 001.185-2.836c0-1.1-.444-2.116-1.185-2.836a4.035 4.035 0 00-2.836-1.185c-1.1 0-2.116.445-2.836 1.185zm4.91.762c.53.53.847 1.27.847 2.074 0 .805-.318 1.545-.847 2.074-.53.53-1.27.847-2.074.847a2.927 2.927 0 01-2.074-.847 2.927 2.927 0 01-.847-2.074c0-.804.318-1.545.847-2.074a2.927 2.927 0 012.074-.846c.804 0 1.545.317 2.074.846zM7.813 1.186v1.63c0 .296.254.55.55.55a.56.56 0 00.551-.55v-1.63a.56.56 0 00-.55-.55.56.56 0 00-.55.55zm5.82 7.45c0 .296.254.55.55.55h1.63a.56.56 0 00.55-.55.56.56 0 00-.55-.55h-1.63a.56.56 0 00-.55.55zm-.381-5.651L12.088 4.15c-.211.19-.211.55 0 .762.212.212.55.212.762 0l1.164-1.164a.536.536 0 000-.762.537.537 0 00-.762 0zM.363 8.636c0 .296.254.55.55.55h1.63a.56.56 0 00.55-.55.56.56 0 00-.55-.55H.913a.56.56 0 00-.55.55zm2.349-5.672a.537.537 0 000 .762L3.876 4.89c.212.212.55.212.762 0 .212-.19.212-.55 0-.762L3.474 2.964a.537.537 0 00-.762 0zm5.101 11.492v1.63c0 .296.254.55.55.55a.547.547 0 00.551-.55v-1.63a.56.56 0 00-.55-.55.56.56 0 00-.55.55zm4.275-2.074c-.211.19-.211.55 0 .762l1.164 1.164c.212.212.55.212.762 0a.536.536 0 000-.762l-1.164-1.164a.537.537 0 00-.762 0zm-8.212 0l-1.164 1.164a.537.537 0 000 .762c.212.212.55.212.762 0l1.164-1.164a.537.537 0 000-.762.537.537 0 00-.762 0z"/></g><defs><clipPath id="clip0_34_1485"><path fill="#fff" transform="rotate(-90 8.5 8.136)" d="M0 0h16v16H0z"/></clipPath></defs></svg>