<svg width="1450" height="840" fill="none" xmlns="http://www.w3.org/2000/svg"><g filter="url(#filter0_d_1_493)"><path d="M154.852 101.822l158.282-54.791 13.884 53.65m13.885 53.649L41 74.426m299.903 79.904l105.521 17.547M340.903 154.33l-13.885-53.649m13.885 53.649l127.736-38.81m-22.215 56.357l22.215-56.357m-22.215 56.357l244.365-14.619m-222.15-41.738l-141.621-14.839m141.621 14.839l222.15 41.738m-222.15-41.738l88.86-68.49m-230.481 53.651l230.481-53.65m0 0l49.984 54.791m83.306 55.436L899.055 75.65m-208.266 81.608l-83.306-55.436m83.306 55.436l206.877 82.276m1.389-163.884l-291.572 26.172M899.055 75.65l-1.389 163.884m1.389-163.884L1104.54 22M897.666 239.534L1104.54 22M897.666 239.534l170.774 29.027M1104.54 22l88.86 107.3M1104.54 22l-36.1 246.561M1193.4 129.3l-124.96 139.261M1193.4 129.3l177.72-79.904M1193.4 129.3l31.94 94.743M1193.4 129.3l136.76 69.41m-261.72 69.851l220.77 79.463m-220.77-79.463l44.43 107.3m258.25-326.465l63.87 136.978m-63.87-136.978l-40.96 149.314m40.96-149.314l-9.02 217.803m72.89-80.825l-12.49 123.281m12.49-123.281l-72.89 80.825m-72.89 80.825l80.38 47.365m-80.38-47.365l133.29-38.369m-133.29 38.369L1157.3 483.16m131.91-135.136l-63.87-123.981m63.87 123.981l40.95-149.314m-40.95 149.314l72.89-80.825m-72.89 80.825L1448 580.208m-78.41-184.819l52.91-85.734m-52.91 85.734L1448 580.208m-290.7-97.048l-44.43-107.299m44.43 107.299l290.7 97.048m-290.7-97.048L942.543 630.627m170.327-254.766l112.47-151.818M1448 580.208l-164.36 89.098M1448 580.208l-107.75 251.26-133.93-27.629M1448 580.208l-141.04 111.816-100.64 111.815M942.543 630.627l232.497-78.653m-232.497 78.653L778.115 812.922m164.428-182.295l85.497 63.888m-85.497-63.888l-128.45 25.626m392.227 147.586l77.32-134.533m-77.32 134.533l-229.646 14.137m306.966-148.67l-255.6 25.209m255.6-25.209l-108.6-117.332m-147 142.541l147-142.541m-147 142.541l-51.366 123.461m51.366-123.461L778.115 812.922m198.559 5.054l-198.559-5.054m0 0c0 4.043-130.454 18.403-195.681 25.078m195.681-25.078l13.21-57.523m22.768-99.146l-22.768 99.146m22.768-99.146l-113.745 95.391M582.434 838l117.914-86.356M582.434 838l-110.441-20.024m319.332-62.577l-90.977-3.755" stroke="url(#paint0_linear_1_493)" stroke-width="2"/></g><defs><linearGradient id="paint0_linear_1_493" x1="1346.13" y1="378.17" x2="218.071" y2="43.92" gradientUnits="userSpaceOnUse"><stop stop-color="#fff" stop-opacity=".07"/><stop offset=".276" stop-color="#fff"/><stop offset="1" stop-color="#fff" stop-opacity="0"/></linearGradient><filter id="filter0_d_1_493" x=".743" y=".872" width="1448.34" height="838.138" filterUnits="userSpaceOnUse" color-interpolation-filters="sRGB"><feFlood flood-opacity="0" result="BackgroundImageFix"/><feColorMatrix in="SourceAlpha" values="0 0 0 0 0 0 0 0 0 0 0 0 0 0 0 0 0 0 127 0" result="hardAlpha"/><feOffset dx="-30" dy="-10"/><feGaussianBlur stdDeviation="5"/><feColorMatrix values="0 0 0 0 0 0 0 0 0 0 0 0 0 0 0 0 0 0 1 0"/><feBlend in2="BackgroundImageFix" result="effect1_dropShadow_1_493"/><feBlend in="SourceGraphic" in2="effect1_dropShadow_1_493" result="shape"/></filter></defs></svg>